<mxfile host="65bd71144e">
    <diagram name="Conceptual Data Model" id="0">
        <mxGraphModel dx="947" dy="787" grid="1" gridSize="10" guides="1" tooltips="1" connect="1" arrows="1" fold="1" page="1" pageScale="1" pageWidth="827" pageHeight="1169" math="0" shadow="0">
            <root>
                <mxCell id="0"/>
                <mxCell id="1" parent="0"/>
                <mxCell id="2" value="Вакансии" style="rounded=0;whiteSpace=wrap;html=1;" parent="1" vertex="1">
                    <mxGeometry x="300" y="100" width="120" height="60" as="geometry"/>
                </mxCell>
                <mxCell id="3" value="Работодатели" style="rounded=0;whiteSpace=wrap;html=1;" parent="1" vertex="1">
                    <mxGeometry x="100" y="100" width="120" height="60" as="geometry"/>
                </mxCell>
                <mxCell id="4" value="Регионы" style="rounded=0;whiteSpace=wrap;html=1;" parent="1" vertex="1">
                    <mxGeometry x="300" y="260" width="120" height="60" as="geometry"/>
                </mxCell>
                <mxCell id="5" value="Опыт работы" style="rounded=0;whiteSpace=wrap;html=1;" parent="1" vertex="1">
                    <mxGeometry x="520" y="100" width="120" height="60" as="geometry"/>
                </mxCell>
                <mxCell id="6" value="Типы занятости" style="rounded=0;whiteSpace=wrap;html=1;" parent="1" vertex="1">
                    <mxGeometry x="110" y="280" width="120" height="60" as="geometry"/>
                </mxCell>
                <mxCell id="7" value="Графики работы" style="rounded=0;whiteSpace=wrap;html=1;" parent="1" vertex="1">
                    <mxGeometry x="550" y="260" width="120" height="60" as="geometry"/>
                </mxCell>
                <mxCell id="8" value="Навыки" style="rounded=0;whiteSpace=wrap;html=1;" parent="1" vertex="1">
                    <mxGeometry x="80" y="410" width="120" height="60" as="geometry"/>
                </mxCell>
                <mxCell id="9" value="Связь навыков и вакансий" style="rounded=0;whiteSpace=wrap;html=1;" parent="1" vertex="1">
                    <mxGeometry x="510" y="410" width="120" height="60" as="geometry"/>
                </mxCell>
                <mxCell id="10" value="1:N" style="endArrow=block;html=1;" parent="1" source="3" target="2" edge="1">
                    <mxGeometry relative="1" as="geometry"/>
                </mxCell>
                <mxCell id="11" value="1:N" style="endArrow=block;html=1;" parent="1" source="4" target="2" edge="1">
                    <mxGeometry relative="1" as="geometry"/>
                </mxCell>
                <mxCell id="12" value="1:N" style="endArrow=block;html=1;" parent="1" source="5" target="2" edge="1">
                    <mxGeometry relative="1" as="geometry"/>
                </mxCell>
                <mxCell id="13" value="1:N" style="endArrow=block;html=1;" parent="1" source="6" target="2" edge="1">
                    <mxGeometry relative="1" as="geometry"/>
                </mxCell>
                <mxCell id="14" value="1:N" style="endArrow=block;html=1;" parent="1" source="7" target="2" edge="1">
                    <mxGeometry relative="1" as="geometry"/>
                </mxCell>
                <mxCell id="15" value="N:M" style="endArrow=block;html=1;" parent="1" source="8" target="9" edge="1">
                    <mxGeometry relative="1" as="geometry"/>
                </mxCell>
                <mxCell id="16" value="1:N" style="endArrow=block;html=1;" parent="1" source="9" target="2" edge="1">
                    <mxGeometry relative="1" as="geometry"/>
                </mxCell>
            </root>
        </mxGraphModel>
    </diagram>
</mxfile>